<?xml version="1.0" encoding="utf-8"?>
<svg viewBox="0 0 195 195" width="195" height="195" xmlns="http://www.w3.org/2000/svg">
  <rect x="21.242" y="34.518" width="154.002" height="127.45" style="stroke: rgb(255, 255, 255); fill: rgb(255, 255, 255);"/>
  <g transform="matrix(0.1, 0, 0, -0.1, 0, 196)" fill="#000000" stroke="none">
    <path d="M0 985 l0 -975 975 0 975 0 0 975 0 975 -975 0 -975 0 0 -975z m1266 494 c134 -24 255 -109 336 -234 l39 -60 -91 -3 -92 -3 -44 45 c-167 166 -442 120 -546 -92 -29 -59 -33 -76 -33 -147 0 -71 4 -89 33 -147 38 -77 92 -130 171 -166 46 -22 71 -26 136 -26 98 0 171 29 240 98 l46 46 90 0 90 0 -28 -52 c-65 -119 -211 -224 -348 -249 -116 -22 -259 6 -360 69 -22 14 -65 51 -95 81 -188 193 -184 507 10 701 118 118 281 169 446 139z m-758 -511 l-3 -323 -82 -3 -83 -3 0 326 0 325 85 0 85 0 -2 -322z" style="fill: rgb(34, 62, 153);"/>
  </g>
</svg>