<?xml version="1.0" encoding="UTF-8"?>
<svg class="css-1j8o68f" viewBox="0 0 292 72" xmlns="http://www.w3.org/2000/svg">
<g transform="matrix(1.2 0 0 1.2 -23.28 -23.76)" fill="#f6f6f6" featurekey="symbolFeature-0">
<g xmlns="http://www.w3.org/2000/svg">
<path d="m57.8 61.7c-1.1 0.7-2.6 1.5-4.1 2.1s-3 0.9-4.4 0.9c-4 0-7.7-1.7-10.3-4.4s-4.3-6.4-4.3-10.5 1.6-7.8 4.3-10.5c2.6-2.7 6.3-4.4 10.3-4.4 0.1 0 0.3 0 0.6 0.1 0.5 0.1 1.1 0.3 1.6 0.5 0.6 0.2 1.1 0.3 1.5 0.4l0.8 0.1 3.4-8.2-1.1-0.3c-1.1-0.3-2.3-0.6-3.5-0.8l-3.3-6.9-9.2 1.4-1 7.6c-1.4 0.7-2.7 1.5-3.9 2.4l-7.2-2.6-5.5 7.6 4.7 6.2c-0.5 1.4-0.8 2.8-1 4.3l-6.8 3.3 1.5 9.3 7.7 1c0.6 1.3 1.4 2.5 2.2 3.6l-2.6 7.2 7.6 5.5 6.2-4.7c1.3 0.5 2.7 0.8 4.1 1l3.3 6.9 9.2-1.4 1-7.6c1.4-0.7 2.8-1.5 4-2.5l0.9-0.7-6-6.4-0.7 0.5zm0.5 7.5-0.5 0.2-1 7.2-6.3 1-3.1-6.6h-0.6c-1.6-0.2-3.2-0.6-4.7-1.1l-0.5-0.2-5.8 4.4-5.2-3.8 2.4-6.8-0.4-0.5c-1-1.3-1.9-2.6-2.6-4.1l-0.2-0.5-7.3-1-1-6.3 6.5-3.1 0.1-0.6c0.2-1.7 0.6-3.3 1.1-4.9l0.2-0.5-4.4-5.7 3.8-5.1 6.8 2.4 0.4-0.3c1.3-1.1 2.8-2 4.4-2.7l0.5-0.2 1-7.2 6.4-1 3.1 6.5 0.5 0.1c0.9 0.1 1.8 0.3 2.6 0.5l-1.9 4.5c-0.5-0.1-1.1-0.3-1.7-0.5-0.3-0.1-0.6-0.2-0.8-0.2-0.2-0.1-0.4-0.1-0.7-0.1-4.6 0-8.7 1.9-11.7 4.9-3 3.1-4.8 7.3-4.8 12s1.9 8.9 4.8 12c3 3.1 7.1 5 11.7 4.9 1.7 0 3.4-0.4 5-1.1 1.3-0.5 2.6-1.2 3.7-1.8l3.3 3.6c-0.9 0.6-2 1.2-3.1 1.7z"/>
<path d="m61.1 35.7-1.9 2.7c2.9 1.9 5 5 5.6 8.7 0.1 0.6 0.1 1.2 0.1 1.8 0 3.1-1.1 6-3 8.2l2.6 2c2.3-2.8 3.7-6.4 3.7-10.2 0-0.8-0.1-1.5-0.2-2.3-0.7-4.6-3.3-8.5-6.9-10.9z"/>
<path d="m79.1 45c-1.1-7.8-5.4-14.2-11.3-18.4l-1.9 2.7c5.2 3.6 9 9.4 10 16.2 0.2 1.2 0.3 2.4 0.3 3.5 0 5.6-1.9 10.8-5.2 15l2.6 2c3.7-4.7 5.9-10.7 5.9-17-0.1-1.4-0.2-2.7-0.4-4z"/>
<path d="m54.4 44.9-3.1 4.3 4.2 3.2c0.9-0.8 1.5-2.1 1.5-3.4v-0.7c-0.1-0.9-0.5-1.7-1.1-2.4-0.5-0.4-1-0.7-1.5-1z"/>
</g>
</g>
<g transform="matrix(1.2216 0 0 1.2216 88.509 -11.961)" fill="#f6f6f6" featurekey="nameFeature-0">
<path d="m19.429 17.714h-9.1429v16h9.1429l2.2857-2.2857h5.4286v4.2857l-4.2857 4.2857h-15.714l-4.2857-4.2857v-20l4.2857-4.2857h15.714l4.2857 4.2857v4.2857h-5.4286zm39.142-2v10l-4.2857 4.2857 4.2857 6.5714v3.4286h-6.8571l-5.9429-9.7143h-5.4857v9.7143h-7.4286v-28.571h21.429zm-7.428 8.286v-6.2857h-10.857v6.2857h10.857zm13.143 16v-24.286l4.2857-4.2857h16.571l4.2857 4.2857v24.286h-7.4286v-8h-10.286v8h-7.4286zm7.4289-14.286h10.286v-8h-10.286v8zm22.571 14.286v-5.7143h2.2857v-17.143h-2.2857v-5.7143h12v5.7143h-2.2857v17.143h2.2857v5.7143h-12zm33.429-22.286h-9.1429v16h9.1429l2.2857-2.2857h5.4286v4.2857l-4.2857 4.2857h-15.714l-4.2857-4.2857v-20l4.2857-4.2857h15.714l4.2857 4.2857v4.2857h-5.4286zm38.857-6.285v3.4286l-9.7143 15.714v9.4286h-7.4286v-9.4857l-9.7143-15.657v-3.4286h6.5714l6.8571 11.657 6.8571-11.657h6.5714z"/>
</g>
<g transform="matrix(.80091 0 0 .80091 89.712 37.847)" fill="#f6f6f6" featurekey="nameFeature-1">
<path d="m20.857 17.714h-10.571v4.8571h14l4.2857 4.2857v8.8571l-4.2857 4.2857h-17.143l-4.2857-4.2857v-4.2857h5.4286l2.2857 2.2857h10.571v-4.8571h-14l-4.2857-4.2857v-8.8571l4.2857-4.2857h17.143l4.2857 4.2857v4.2857h-5.4286zm34.286-6.285 4.2857 4.2857v20l-4.2857 4.2857h-16.571l-4.2857-4.2857v-20l4.2857-4.2857h16.571zm-3.143 22.285v-16h-10.286v16h10.286zm13.143 2v-24.286h7.4286v22.286h15.429v6.2857h-18.571zm27.143 0v-24.286h7.4286v22.286h10.286v-22.286h7.4286v24.286l-4.2857 4.2857h-16.571zm28.857-18v-6.2857h24.286v6.2857h-8.4571v22.286h-7.4286v-22.286h-8.4zm27.143 22.286v-5.7143h2.2857v-17.143h-2.2857v-5.7143h12v5.7143h-2.2857v17.143h2.2857v5.7143h-12zm37.714-28.571 4.2857 4.2857v20l-4.2857 4.2857h-16.571l-4.2857-4.2857v-20l4.2857-4.2857h16.571zm-3.143 22.285v-16h-10.286v16h10.286zm30.857-22.285h7.4286v28.571h-6.5714l-11.143-16v16h-7.4286v-28.571h6.5714l11.143 15.886v-15.886zm31.143 6.285h-10.571v4.8571h14l4.2857 4.2857v8.8571l-4.2857 4.2857h-17.143l-4.2857-4.2857v-4.2857h5.4286l2.2857 2.2857h10.571v-4.8571h-14l-4.2857-4.2857v-8.8571l4.2857-4.2857h17.143l4.2857 4.2857v4.2857h-5.4286z"/>
</g>
</svg>
